<svg width="384" height="86" viewBox="0 0 384 86" fill="none" xmlns="http://www.w3.org/2000/svg">
<g clip-path="url(#clip0_2_2)">
<rect width="384" height="86" fill="white"/>
<path d="M25.4609 11.6016C32.0938 11.6016 36.9336 12.9023 39.9805 15.5039C43.0508 18.082 44.5859 21.7852 44.5859 26.6133C44.5859 28.793 44.2227 30.8672 43.4961 32.8359C42.793 34.7812 41.6445 36.5039 40.0508 38.0039C38.457 39.4805 36.3594 40.6523 33.7578 41.5195C31.1797 42.3633 28.0156 42.7852 24.2656 42.7852H18.0078V63H12.0312V11.6016H25.4609ZM24.8984 16.6992H18.0078V37.6523H23.5977C26.8789 37.6523 29.6094 37.3008 31.7891 36.5977C33.9922 35.8945 35.6445 34.7578 36.7461 33.1875C37.8477 31.5938 38.3984 29.4844 38.3984 26.8594C38.3984 23.4375 37.3086 20.8945 35.1289 19.2305C32.9492 17.543 29.5391 16.6992 24.8984 16.6992ZM68.8789 23.8359C73.4727 23.8359 76.8828 24.8672 79.1094 26.9297C81.3359 28.9922 82.4492 32.2852 82.4492 36.8086V63H78.1953L77.0703 57.3047H76.7891C75.7109 58.7109 74.5859 59.8945 73.4141 60.8555C72.2422 61.793 70.8828 62.5078 69.3359 63C67.8125 63.4688 65.9375 63.7031 63.7109 63.7031C61.3672 63.7031 59.2812 63.293 57.4531 62.4727C55.6484 61.6523 54.2188 60.4102 53.1641 58.7461C52.1328 57.082 51.6172 54.9727 51.6172 52.418C51.6172 48.5742 53.1406 45.6211 56.1875 43.5586C59.2344 41.4961 63.875 40.3711 70.1094 40.1836L76.7539 39.9023V37.5469C76.7539 34.2188 76.0391 31.8867 74.6094 30.5508C73.1797 29.2148 71.1641 28.5469 68.5625 28.5469C66.5469 28.5469 64.625 28.8398 62.7969 29.4258C60.9688 30.0117 59.2344 30.7031 57.5938 31.5L55.8008 27.0703C57.5352 26.1797 59.5273 25.418 61.7773 24.7852C64.0273 24.1523 66.3945 23.8359 68.8789 23.8359ZM76.6836 44.0156L70.8125 44.2617C66.0078 44.4492 62.6211 45.2344 60.6523 46.6172C58.6836 48 57.6992 49.957 57.6992 52.4883C57.6992 54.6914 58.3672 56.3203 59.7031 57.375C61.0391 58.4297 62.8086 58.957 65.0117 58.957C68.4336 58.957 71.2344 58.0078 73.4141 56.1094C75.5938 54.2109 76.6836 51.3633 76.6836 47.5664V44.0156ZM88.3906 24.4688H94.6484L103.156 46.8281C103.648 48.1406 104.105 49.4062 104.527 50.625C104.949 51.8203 105.324 52.9688 105.652 54.0703C105.98 55.1719 106.238 56.2383 106.426 57.2695H106.672C107 56.0977 107.469 54.5625 108.078 52.6641C108.688 50.7422 109.344 48.7852 110.047 46.793L118.098 24.4688H124.391L107.621 68.6602C106.73 71.0273 105.688 73.0898 104.492 74.8477C103.32 76.6055 101.891 77.9531 100.203 78.8906C98.5156 79.8516 96.4766 80.332 94.0859 80.332C92.9844 80.332 92.0117 80.2617 91.168 80.1211C90.3242 80.0039 89.5977 79.8633 88.9883 79.6992V75.0234C89.5039 75.1406 90.125 75.2461 90.8516 75.3398C91.6016 75.4336 92.375 75.4805 93.1719 75.4805C94.625 75.4805 95.8789 75.1992 96.9336 74.6367C98.0117 74.0977 98.9375 73.3008 99.7109 72.2461C100.484 71.1914 101.152 69.9375 101.715 68.4844L103.824 63.0703L88.3906 24.4688Z" fill="#1F1F1F"/>
<path d="M176.261 30.2727H161.841C161.739 29.0795 161.466 27.9972 161.023 27.0256C160.597 26.054 160 25.2187 159.233 24.5199C158.483 23.804 157.571 23.2585 156.497 22.8835C155.423 22.4915 154.205 22.2955 152.841 22.2955C150.455 22.2955 148.435 22.875 146.781 24.0341C145.145 25.1932 143.901 26.8551 143.048 29.0199C142.213 31.1847 141.795 33.7841 141.795 36.8182C141.795 40.0227 142.222 42.7074 143.074 44.8722C143.943 47.0199 145.196 48.6392 146.832 49.7301C148.469 50.804 150.438 51.3409 152.739 51.3409C154.051 51.3409 155.227 51.179 156.267 50.8551C157.307 50.5142 158.21 50.0284 158.977 49.3977C159.744 48.767 160.366 48.0085 160.844 47.1222C161.338 46.2187 161.67 45.2045 161.841 44.0795L176.261 44.1818C176.091 46.3977 175.469 48.6562 174.395 50.9574C173.321 53.2415 171.795 55.3551 169.818 57.2983C167.858 59.2244 165.429 60.7756 162.531 61.9517C159.634 63.1278 156.267 63.7159 152.432 63.7159C147.625 63.7159 143.312 62.6847 139.494 60.6222C135.693 58.5597 132.685 55.5256 130.469 51.5199C128.27 47.5142 127.17 42.6136 127.17 36.8182C127.17 30.9886 128.295 26.0795 130.545 22.0909C132.795 18.0852 135.83 15.0597 139.648 13.0142C143.466 10.9517 147.727 9.92045 152.432 9.92045C155.739 9.92045 158.781 10.3722 161.56 11.2756C164.338 12.179 166.776 13.5 168.872 15.2386C170.969 16.9602 172.656 19.0824 173.935 21.6051C175.213 24.1278 175.989 27.017 176.261 30.2727ZM182.915 63V23.7273H196.62V31.1932H197.029C197.745 28.4318 198.879 26.4119 200.43 25.1335C201.998 23.8551 203.83 23.2159 205.927 23.2159C206.54 23.2159 207.146 23.267 207.742 23.3693C208.356 23.4545 208.944 23.5824 209.506 23.7528V35.7955C208.808 35.5568 207.947 35.3778 206.924 35.2585C205.901 35.1392 205.023 35.0795 204.29 35.0795C202.91 35.0795 201.665 35.3949 200.558 36.0256C199.467 36.6392 198.606 37.5085 197.975 38.6335C197.344 39.7415 197.029 41.0455 197.029 42.5455V63H182.915ZM223.92 77.7273C222.301 77.7273 220.759 77.5994 219.293 77.3438C217.827 77.1051 216.54 76.7727 215.432 76.3466L218.5 66.3239C219.659 66.733 220.716 66.9972 221.67 67.1165C222.642 67.2358 223.469 67.1676 224.151 66.9119C224.849 66.6563 225.352 66.1705 225.659 65.4545L225.966 64.7386L212.159 23.7273H226.886L233.227 50.9318H233.636L240.08 23.7273H254.909L240.591 66.2727C239.875 68.4375 238.835 70.3807 237.472 72.1023C236.125 73.8409 234.352 75.2131 232.153 76.2188C229.955 77.2244 227.21 77.7273 223.92 77.7273ZM258.923 77.7273V23.7273H272.935V30.5795H273.241C273.753 29.25 274.503 28.0312 275.491 26.9233C276.48 25.7983 277.707 24.9034 279.173 24.2386C280.639 23.5568 282.344 23.2159 284.287 23.2159C286.878 23.2159 289.341 23.9062 291.676 25.2869C294.028 26.6676 295.938 28.8409 297.403 31.8068C298.886 34.7727 299.628 38.625 299.628 43.3636C299.628 47.8977 298.92 51.6562 297.506 54.6392C296.108 57.6222 294.233 59.8466 291.881 61.3125C289.545 62.7784 286.98 63.5114 284.185 63.5114C282.344 63.5114 280.699 63.2131 279.25 62.6165C277.818 62.0028 276.591 61.1761 275.568 60.1364C274.563 59.0795 273.787 57.8864 273.241 56.5568H273.037V77.7273H258.923ZM272.73 43.3636C272.73 45.2727 272.977 46.9261 273.472 48.3239C273.983 49.7045 274.699 50.7784 275.619 51.5455C276.557 52.2955 277.673 52.6705 278.969 52.6705C280.264 52.6705 281.364 52.304 282.267 51.571C283.188 50.821 283.886 49.7557 284.364 48.375C284.858 46.9773 285.105 45.3068 285.105 43.3636C285.105 41.4205 284.858 39.7585 284.364 38.3778C283.886 36.9801 283.188 35.9148 282.267 35.1818C281.364 34.4318 280.264 34.0568 278.969 34.0568C277.673 34.0568 276.557 34.4318 275.619 35.1818C274.699 35.9148 273.983 36.9801 273.472 38.3778C272.977 39.7585 272.73 41.4205 272.73 43.3636ZM328.961 23.7273V33.9545H303.086V23.7273H328.961ZM308.097 14.3182H322.211V50.3693C322.211 50.9148 322.305 51.375 322.492 51.75C322.68 52.108 322.969 52.3807 323.362 52.5682C323.754 52.7386 324.256 52.8239 324.87 52.8239C325.296 52.8239 325.79 52.7727 326.353 52.6705C326.933 52.5682 327.359 52.483 327.631 52.4148L329.677 62.3352C329.046 62.5227 328.143 62.7528 326.967 63.0256C325.808 63.2983 324.427 63.4773 322.825 63.5625C319.586 63.733 316.867 63.4006 314.668 62.5653C312.469 61.7131 310.816 60.375 309.708 58.5511C308.6 56.7273 308.063 54.4432 308.097 51.6989V14.3182ZM353.219 63.7159C348.957 63.7159 345.31 62.8722 342.276 61.1847C339.241 59.4801 336.915 57.1108 335.295 54.0767C333.676 51.0256 332.866 47.4886 332.866 43.4659C332.866 39.4432 333.676 35.9148 335.295 32.8807C336.915 29.8295 339.241 27.4602 342.276 25.7727C345.31 24.0682 348.957 23.2159 353.219 23.2159C357.48 23.2159 361.128 24.0682 364.162 25.7727C367.196 27.4602 369.523 29.8295 371.142 32.8807C372.761 35.9148 373.571 39.4432 373.571 43.4659C373.571 47.4886 372.761 51.0256 371.142 54.0767C369.523 57.1108 367.196 59.4801 364.162 61.1847C361.128 62.8722 357.48 63.7159 353.219 63.7159ZM353.321 53.2841C354.514 53.2841 355.545 52.8835 356.415 52.0824C357.284 51.2812 357.957 50.1392 358.435 48.6562C358.912 47.1733 359.151 45.4091 359.151 43.3636C359.151 41.3011 358.912 39.5369 358.435 38.071C357.957 36.5881 357.284 35.446 356.415 34.6449C355.545 33.8437 354.514 33.4432 353.321 33.4432C352.06 33.4432 350.977 33.8437 350.074 34.6449C349.17 35.446 348.48 36.5881 348.003 38.071C347.526 39.5369 347.287 41.3011 347.287 43.3636C347.287 45.4091 347.526 47.1733 348.003 48.6562C348.48 50.1392 349.17 51.2812 350.074 52.0824C350.977 52.8835 352.06 53.2841 353.321 53.2841Z" fill="#1F1F1F"/>
</g>
<defs>
<clipPath id="clip0_2_2">
<rect width="384" height="86" fill="white"/>
</clipPath>
</defs>
</svg>
